<?xml version="1.0" standalone="no"?>
<!DOCTYPE svg PUBLIC "-//W3C//DTD SVG 20010904//EN"
 "http://www.w3.org/TR/2001/REC-SVG-20010904/DTD/svg10.dtd">
<svg version="1.0" xmlns="http://www.w3.org/2000/svg"
 width="26.000000pt" height="26.000000pt" viewBox="0 0 26.000000 26.000000"
 preserveAspectRatio="xMidYMid meet">

<g transform="translate(0.000000,26.000000) scale(0.100000,-0.100000)"
fill="#000000" stroke="none">
<path d="M70 243 c-95 -49 -87 -193 13 -232 105 -40 206 61 166 166 -27 70
-111 101 -179 66z m110 -18 c32 -17 60 -61 60 -95 0 -17 -13 -53 -25 -68 -1
-1 -16 5 -33 14 -33 16 -40 28 -22 39 6 3 10 24 10 46 0 32 -4 41 -25 51 -36
16 -58 -5 -52 -51 2 -20 7 -43 11 -52 5 -11 -3 -20 -27 -31 -34 -16 -35 -16
-46 8 -15 34 -14 59 4 94 28 54 90 73 145 45z"/>
</g>
</svg>
